# xmcd
#
# Track frame offsets:
#  150
#  19409
#  36013
#  49741
#  64061
#  84337
#  101713
#  122738
#  140205
#  163251
#  179332
#
# Disc length: 2523 seconds
#
# Revision: 0
# Processed by: cddbd v1.5.2PL0 Copyright (c) Steve Scherf et al.
# Submitted via: AltoMP3_Maker 3.0
#
DISCID=9b09d90b
DTITLE=Terry Allen - Bottom of the World
DYEAR=1900
DGENRE=Country
TTITLE0=Four Corners
TTITLE1=Queenie's Song
TTITLE2=Hold on to the House
TTITLE3=Do They Dream of Hell in Heaven
TTITLE4=Bottom of the World
TTITLE5=Angels of the Wind
TTITLE6=Emergency Human Blood Courier
TTITLE7=Wake of the Red Witch
TTITLE8=The Gift
TTITLE9=Sidekick Anthem
TTITLE10=Covenant (for Jo Harvey)
EXTD=
EXTT0=
EXTT1=
EXTT2=
EXTT3=
EXTT4=
EXTT5=
EXTT6=
EXTT7=
EXTT8=
EXTT9=
EXTT10=
PLAYORDER=
